<svg width="167" height="42" viewBox="0 0 167 42" fill="none" xmlns="http://www.w3.org/2000/svg">
<g clip-path="url(#clip0_169_5990)">
<path d="M158.973 22.4933C154.851 21.7417 154.53 20.9671 154.53 19.9497C154.53 18.5285 155.792 17.7441 158.085 17.7441C160.562 17.7441 162.029 18.6631 162.452 20.4715L162.544 20.8654H166.538L166.485 20.3074C166.214 17.4192 163.905 14.3373 158.243 14.3373C152.582 14.3373 150.448 17.4979 150.448 20.2024C150.448 23.4582 152.634 25.1748 157.999 26.1331C162.501 26.9209 162.861 27.935 162.861 29.1789C162.861 30.9447 161.513 31.8046 158.745 31.8046C155.977 31.8046 154.299 30.7215 153.698 28.5882L153.592 28.2173H149.536L149.629 28.8048C150.286 32.9566 153.473 35.241 158.607 35.241C163.74 35.241 167 32.891 167 28.9558C167 25.9494 165.636 23.6978 158.973 22.49" fill="white"/>
<path d="M51.639 30.8365H47.2028V11.2161H51.639C57.0001 11.2161 61.3603 15.6174 61.3603 21.0263C61.3603 23.6421 60.3462 26.107 58.5097 27.9614C56.6698 29.8158 54.232 30.8365 51.639 30.8365ZM51.639 7.33667H42.9912V34.716H51.639C55.3551 34.716 58.8499 33.2915 61.4825 30.7019C64.1185 28.1124 65.5686 24.676 65.5686 21.0263C65.5686 13.4775 59.3189 7.33667 51.639 7.33667Z" fill="white"/>
<path d="M126.708 14.554L126.305 14.4719C124.088 14.0289 122.361 14.7805 121.3 15.4861C120.085 16.2968 119.117 17.4816 118.681 18.6829H117.99V14.8034H109.534V18.4597H113.931V31.0006H109.534V34.6569H126.427V31.0006H117.99V24.8828C117.99 22.5689 118.886 20.8064 120.441 19.6609C121.977 18.5352 124.019 18.2398 126.044 18.8568L126.708 19.057V14.5573" fill="white"/>
<path d="M147.399 23.5863C147.399 17.6227 144.499 14.3406 139.23 14.3406C137.671 14.3406 134.9 14.7738 133.687 17.6555H132.997V14.869H128.941V34.7191H132.997V24.0786C132.997 19.9595 134.688 17.9607 138.17 17.9607C142.444 17.9607 143.343 21.0229 143.343 23.5895V34.7191H147.399V23.5895V23.5863Z" fill="white"/>
<path d="M77.0307 14.3406C71.2171 14.3406 67.458 18.325 67.458 24.4921V25.0566C67.458 31.2467 71.2137 35.2443 77.0307 35.2443C81.7609 35.2443 85.0443 32.7564 86.2797 28.2403L86.3622 27.9449H82.1143C81.1861 30.436 79.4751 31.7029 77.0307 31.7029C73.9026 31.7029 71.8182 29.4612 71.5441 25.8279H86.6793V24.4888C86.6793 18.2266 82.9831 14.3373 77.0307 14.3373V14.3406ZM71.7224 22.4736C72.3005 19.6149 74.2659 17.9181 77.0307 17.9181C79.7955 17.9181 81.8335 19.5722 82.4149 22.4736H71.7191H71.7224Z" fill="white"/>
<path d="M103.635 27.9449C102.707 30.436 100.995 31.7029 98.5511 31.7029C95.4229 31.7029 93.3386 29.4612 93.0645 25.8279H108.2V24.4888C108.2 18.2266 104.503 14.3373 98.5511 14.3373C92.5987 14.3373 88.9784 18.3217 88.9784 24.4888V25.0533C88.9784 31.2434 92.7341 35.241 98.5511 35.241C103.281 35.241 106.565 32.7531 107.8 28.237L107.883 27.9416H103.638L103.635 27.9449ZM98.5511 17.9181C101.405 17.9181 103.354 19.5722 103.935 22.4736H93.2428C93.8176 19.6149 95.7863 17.9181 98.5511 17.9181Z" fill="white"/>
<path d="M20.6318 0.5L0 21L20.6318 41.5C25.9103 36.2552 29.1772 29.005 29.1772 21C29.1772 12.995 25.9103 5.7448 20.6318 0.5Z" fill="#00B2E3"/>
</g>
<defs>
<clipPath id="clip0_169_5990">
<rect width="167" height="41" fill="white" transform="translate(0 0.5)"/>
</clipPath>
</defs>
</svg>
